<?xml version="1.0" standalone="no"?><!DOCTYPE svg PUBLIC "-//W3C//DTD SVG 1.1//EN" "http://www.w3.org/Graphics/SVG/1.1/DTD/svg11.dtd"><svg t="1626151318782" class="icon" viewBox="0 0 1024 1024" version="1.1" xmlns="http://www.w3.org/2000/svg" p-id="4634" xmlns:xlink="http://www.w3.org/1999/xlink" width="200" height="200"><defs><style type="text/css"></style></defs><path d="M738 960H286c-122.1 0-222-99.9-222-222V286c0-122.1 99.9-222 222-222h452c122.1 0 222 99.9 222 222v452c0 122.1-99.9 222-222 222zM267.5 234.4H162.6v8.4h155.2c5.6 0 8.8-0.9 9.8-2.8 1.9-2.8 0.9-5.1-2.8-7l-36.4-26.6-20.9 28z m-14 46.2h-76.9v8.4h127.3c4.7 0 7.5-0.9 8.4-2.8 0.9-1.9 0-4.2-2.8-7L273.1 254l-19.6 26.6z m-44.7 202.7c9.3-0.9 14-5.6 14-14v-9.8h36.4v21c15.8 0 28.9-1.4 39.2-4.2 5.6 0 7.9-3.7 7-11.2 0-11.2-0.5-25.6-1.4-43.4v-32.2c8.4-5.6 13-10.7 14-15.4 0-2.8-2.3-5.1-7-7l-46.1-16.8-11.2 22.4h-23.8l-53.1-12.6v125.8c10.1 0.2 20.8-0.7 32-2.6z m47.5-156.6H178v8.4h127.3c4.7 0 7.5-0.9 8.4-2.8 0.9-1.9 0-3.7-2.8-5.6l-35-26.6-19.6 26.6z m8.4-123.1c0.9-17.7-18.2-28.4-57.3-32.2l-1.4 1.4c5.6 12.1 9.3 26.1 11.2 42-0.9 12.1 5.1 17.7 18.2 16.8 17.6-1.8 27.4-11.2 29.3-28z m-5.6 249h-36.4v-71.3h36.4v71.3z m167.8-225.2h-4.2v-30.8c9.3-4.7 14-9.3 14-14 0.9-2.8-1.4-4.7-7-5.6l-55.9-5.6c0 4.7 0.5 14 1.4 28v28H329v8.4h46.1v53.1h-62.9v8.4H494c4.7 0 7.9-0.9 9.8-2.8 0.9-1.9 0-4.2-2.8-7l-40.6-29.4-21 30.8h-16.8v-53.1h54.5c5.6 0 8.8-0.9 9.8-2.8 1.9-1.9 0.9-4.2-2.8-7l-36.4-28-20.8 29.4z m32.2 118.9v-25.2c7.5-2.8 11.2-6.5 11.2-11.2 0-2.8-2.3-4.2-7-4.2l-54.5-5.6c0.9 14.9 1.4 30.3 1.4 46.1h-90.9v8.4h90.9v79.7c0 11.2-4.7 16.3-14 15.4l-47.5-1.4-1.4 5.6c32.6 3.7 48.9 17.2 48.9 40.6 42.9-3.7 64.3-17.7 64.3-42-0.9-26.1-1.4-50.3-1.4-72.7v-25.2h35c5.6 0 9.3-0.9 11.2-2.8 1.9-2.8 0.9-5.6-2.8-8.4L475.9 321l-16.8 25.3zM392 403.6c0-16.8-18.7-30.3-55.9-40.6l-2.8 2.8c8.4 14 14 30.8 16.8 50.3 1.9 11.2 7.5 16.8 16.8 16.8 15.7-0.8 24.1-10.6 25.1-29.3zM610.1 233h-89.5v8.4h141.2c4.7 0 7.9-0.9 9.8-2.8 1.9-2.8 0.9-5.1-2.8-7L631.1 205l-21 28z m-44.7 253.1h4.2c7.5-1.9 10.7-6.1 9.8-12.6v-14h25.2v16.8c5.6-0.9 13-1.9 22.4-2.8 4.7-0.9 8.4-1.4 11.2-1.4 7.5-0.9 10.7-4.7 9.8-11.2V391c8.4-5.6 12.6-10.7 12.6-15.4 0-2.8-0.9-4.7-2.8-5.6-0.9 0-1.9-0.5-2.8-1.4l-42-16.8-12.6 22.4h-18.2l-47.5-9.8v124.5c11.1 0 21.3-0.9 30.7-2.8z m34.9-206.9H536v8.4h113.3c4.7 0 7.9-0.9 9.8-2.8 0.9-1.9 0-4.2-2.8-7l-36.4-25.2-19.6 26.6z m-1.4 46.1H536v8.4h111.9c4.7 0 7.9-0.9 9.8-2.8 0.9-1.9 0-4.2-2.8-7l-36.4-25.2-19.6 26.6z m12.6-121.7c0.9-14.9-16.3-25.2-51.7-30.8l-2.8 2.8c5.6 12.1 9.3 25.7 11.2 40.6 1.9 9.3 7 14 15.4 14 16.7-0.9 26-9.8 27.9-26.6z m-7 247.6h-25.2v-68.5h25.2v68.5z m128.7-194.4h-72.7v8.4h125.9c0.9 0 2.3-0.5 4.2-1.4h2.8v165c0 11.2-5.1 16.8-15.4 16.8l-40.6-1.4v5.6c28 6.5 41 21 39.2 43.4 45.7-3.7 67.1-20.5 64.3-50.3V216.4c9.3-8.4 14-14.9 14-19.6 0-2.8-2.3-5.6-7-8.4l-46.1-18.2-15.4 28H664.7v8.4h128.7v48.9l-39.2-28-21 29.3z m35 163.6c5.6-0.9 7.9-4.7 7-11.2 0-7.5-0.5-19.1-1.4-35v-47.6c8.4-4.7 12.6-10.7 12.6-18.2 0-1.9-1.4-3.3-4.2-4.2l-43.4-15.4-12.6 23.8h-14L666.1 300c0.9 12.1 1.4 26.6 1.4 43.4v30.8c0 22.4-0.5 42-1.4 58.7 8.4 0 18.6-1.4 30.8-4.2 8.4 0 12.1-4.2 11.2-12.6v-15.4h25.2v23.8c11.1 0.1 22.7-1.3 34.9-4.1z m-35-28H708v-71.3h25.2v71.3zM503.8 798l2.8-7c-74.6-29.8-123.1-78.3-145.4-145.4h124.5c6.5 0 10.7-1.4 12.6-4.2 1.9-2.8 0.5-5.6-4.2-8.4L448 598l-28 37.8h-71.3c1.9-17.7 2.8-37.8 2.8-60.1v-18.2c12.1-5.6 18.2-11.2 18.2-16.8 0.9-2.8-1.4-4.2-7-4.2l-69.9-5.6c0.9 7.5 1.4 27.5 1.4 60.1 0 15.9-0.5 30.8-1.4 44.8H168.2v9.8h123.1c-4.7 83-48.5 150.6-131.5 202.8l2.8 5.6C281 820.4 343 751 348.6 645.6h1.4c3.7 90.4 33.6 159 89.5 205.6 16.8-31.8 38.2-49.5 64.3-53.2z m358-167.8l1.4-5.6c-65.3-8.4-118.4-30.3-159.4-65.7l1.4-1.4c13-1.9 19.1-5.6 18.2-11.2 0-2.8-1.9-4.7-5.6-5.6l-64.3-14c-2.8 9.3-7.5 20.5-14 33.6-0.9 2.8-1.9 4.7-2.8 5.6-25.2 41-63.4 83-114.7 125.9l2.8 4.2c75.5-28 133.3-70.8 173.4-128.7 25.2 51.3 68 90 128.7 116.1 9.3-29 21-46.7 34.9-53.2zM754.2 740.6H715v-71.3h57.3c4.7 0 7.9-0.9 9.8-2.8 0.9-1.9 0-3.7-2.8-5.6L736 630.2 712.2 661H600.3v8.4H659v71.3h-89.5v8.4H659V826H530.4v8.4H852c5.6 0 9.3-0.9 11.2-2.8 1.9-2.8 0.9-5.6-2.8-8.4l-47.5-30.8-26.6 33.6H715v-77h99.3c5.6 0 9.3-0.9 11.2-2.8 0.9-1.9-0.5-4.2-4.2-7L777.9 707l-23.7 33.6z" fill="" p-id="4635"></path></svg>